<svg aria-roledescription="gitGraph" viewBox="-299.0333251953125 -19 1057.0333251953125 264.0926971435547" height="100%" xmlns="http://www.w3.org/2000/svg" width="1057.0333251953125" id="graph-div" style="max-width: 100%;" xmlns:xlink="http://www.w3.org/1999/xlink"><style>@import url("https://cdnjs.cloudflare.com/ajax/libs/font-awesome/6.2.1/css/all.min.css");'</style><style>#graph-div{font-family:"trebuchet ms",verdana,arial,sans-serif;font-size:16px;fill:#ccc;}#graph-div .error-icon{fill:#a44141;}#graph-div .error-text{fill:#ddd;stroke:#ddd;}#graph-div .edge-thickness-normal{stroke-width:2px;}#graph-div .edge-thickness-thick{stroke-width:3.5px;}#graph-div .edge-pattern-solid{stroke-dasharray:0;}#graph-div .edge-pattern-dashed{stroke-dasharray:3;}#graph-div .edge-pattern-dotted{stroke-dasharray:2;}#graph-div .marker{fill:lightgrey;stroke:lightgrey;}#graph-div .marker.cross{stroke:lightgrey;}#graph-div svg{font-family:"trebuchet ms",verdana,arial,sans-serif;font-size:16px;}#graph-div .commit-id,#graph-div .commit-msg,#graph-div .branch-label{fill:lightgrey;color:lightgrey;font-family:'trebuchet ms',verdana,arial,sans-serif;font-family:var(--mermaid-font-family);}#graph-div .branch-label0{fill:undefined;}#graph-div .commit0{stroke:hsl(180, 1.5873015873%, 48.3529411765%);fill:hsl(180, 1.5873015873%, 48.3529411765%);}#graph-div .commit-highlight0{stroke:rgb(133.6571428571, 129.7428571428, 129.7428571428);fill:rgb(133.6571428571, 129.7428571428, 129.7428571428);}#graph-div .label0{fill:hsl(180, 1.5873015873%, 48.3529411765%);}#graph-div .arrow0{stroke:hsl(180, 1.5873015873%, 48.3529411765%);}#graph-div .branch-label1{fill:undefined;}#graph-div .commit1{stroke:hsl(321.6393442623, 65.5913978495%, 38.2352941176%);fill:hsl(321.6393442623, 65.5913978495%, 38.2352941176%);}#graph-div .commit-highlight1{stroke:rgb(93.5483870969, 221.4516129033, 139.677419355);fill:rgb(93.5483870969, 221.4516129033, 139.677419355);}#graph-div .label1{fill:hsl(321.6393442623, 65.5913978495%, 38.2352941176%);}#graph-div .arrow1{stroke:hsl(321.6393442623, 65.5913978495%, 38.2352941176%);}#graph-div .branch-label2{fill:undefined;}#graph-div .commit2{stroke:hsl(194.4, 16.5562913907%, 49.6078431373%);fill:hsl(194.4, 16.5562913907%, 49.6078431373%);}#graph-div .commit-highlight2{stroke:rgb(149.4437086091, 117.6092715231, 107.5562913906);fill:rgb(149.4437086091, 117.6092715231, 107.5562913906);}#graph-div .label2{fill:hsl(194.4, 16.5562913907%, 49.6078431373%);}#graph-div .arrow2{stroke:hsl(194.4, 16.5562913907%, 49.6078431373%);}#graph-div .branch-label3{fill:undefined;}#graph-div .commit3{stroke:hsl(23.0769230769, 49.0566037736%, 40.7843137255%);fill:hsl(23.0769230769, 49.0566037736%, 40.7843137255%);}#graph-div .commit-highlight3{stroke:rgb(99.9811320754, 162.7735849057, 202.0188679245);fill:rgb(99.9811320754, 162.7735849057, 202.0188679245);}#graph-div .label3{fill:hsl(23.0769230769, 49.0566037736%, 40.7843137255%);}#graph-div .arrow3{stroke:hsl(23.0769230769, 49.0566037736%, 40.7843137255%);}#graph-div .branch-label4{fill:undefined;}#graph-div .commit4{stroke:hsl(0, 83.3333333333%, 43.5294117647%);fill:hsl(0, 83.3333333333%, 43.5294117647%);}#graph-div .commit-highlight4{stroke:rgb(51.5000000001, 236.5, 236.5);fill:rgb(51.5000000001, 236.5, 236.5);}#graph-div .label4{fill:hsl(0, 83.3333333333%, 43.5294117647%);}#graph-div .arrow4{stroke:hsl(0, 83.3333333333%, 43.5294117647%);}#graph-div .branch-label5{fill:undefined;}#graph-div .commit5{stroke:hsl(289.1666666667, 100%, 24.1176470588%);fill:hsl(289.1666666667, 100%, 24.1176470588%);}#graph-div .commit-highlight5{stroke:rgb(154.2083333334, 255, 132.0000000001);fill:rgb(154.2083333334, 255, 132.0000000001);}#graph-div .label5{fill:hsl(289.1666666667, 100%, 24.1176470588%);}#graph-div .arrow5{stroke:hsl(289.1666666667, 100%, 24.1176470588%);}#graph-div .branch-label6{fill:undefined;}#graph-div .commit6{stroke:hsl(35.1315789474, 98.7012987013%, 40.1960784314%);fill:hsl(35.1315789474, 98.7012987013%, 40.1960784314%);}#graph-div .commit-highlight6{stroke:rgb(51.331168831, 135.1948051946, 253.6688311688);fill:rgb(51.331168831, 135.1948051946, 253.6688311688);}#graph-div .label6{fill:hsl(35.1315789474, 98.7012987013%, 40.1960784314%);}#graph-div .arrow6{stroke:hsl(35.1315789474, 98.7012987013%, 40.1960784314%);}#graph-div .branch-label7{fill:undefined;}#graph-div .commit7{stroke:hsl(106.1538461538, 84.4155844156%, 35.0980392157%);fill:hsl(106.1538461538, 84.4155844156%, 35.0980392157%);}#graph-div .commit-highlight7{stroke:rgb(206.1818181817, 89.948051948, 241.051948052);fill:rgb(206.1818181817, 89.948051948, 241.051948052);}#graph-div .label7{fill:hsl(106.1538461538, 84.4155844156%, 35.0980392157%);}#graph-div .arrow7{stroke:hsl(106.1538461538, 84.4155844156%, 35.0980392157%);}#graph-div .branch{stroke-width:1;stroke:lightgrey;stroke-dasharray:2;}#graph-div .commit-label{font-size:10px;fill:rgb(183.8476190475, 181.5523809523, 181.5523809523);}#graph-div .commit-label-bkg{font-size:10px;fill:hsl(180, 1.5873015873%, 28.3529411765%);opacity:0.5;}#graph-div .tag-label{font-size:10px;fill:#e0dfdf;}#graph-div .tag-label-bkg{fill:#1f2020;stroke:#cccccc;}#graph-div .tag-hole{fill:#ccc;}#graph-div .commit-merge{stroke:#1f2020;fill:#1f2020;}#graph-div .commit-reverse{stroke:#1f2020;fill:#1f2020;stroke-width:3;}#graph-div .commit-highlight-inner{stroke:#1f2020;fill:#1f2020;}#graph-div .arrow{stroke-width:8;stroke-linecap:round;fill:none;}#graph-div .gitTitleText{text-anchor:middle;font-size:18px;fill:#ccc;}:root{--mermaid-font-family:"trebuchet ms",verdana,arial,sans-serif;}</style><g></g><g class="commit-bullets"></g><g class="commit-labels"></g><g><line class="branch branch0" y2="0" x2="750" y1="0" x1="0"></line><rect transform="translate(-19, -9.5)" height="23" width="53" y="-1.5" x="-69" ry="4" rx="4" class="branchLabelBkg label0"></rect><g class="branchLabel"><g transform="translate(-79, -10.5)" class="label branch-label0"><text><tspan class="row" x="0" dy="1em" xml:space="preserve">main</tspan></text></g></g><line class="branch branch1" y2="90" x2="750" y1="90" x1="0"></line><rect transform="translate(-19, 80.5)" height="23" width="204.71665954589844" y="-1.5" x="-220.71665954589844" ry="4" rx="4" class="branchLabelBkg label1"></rect><g class="branchLabel"><g transform="translate(-230.71665954589844, 79.5)" class="label branch-label1"><text><tspan class="row" x="0" dy="1em" xml:space="preserve">feature/player movement</tspan></text></g></g><line class="branch branch2" y2="180" x2="750" y1="180" x1="0"></line><rect transform="translate(-19, 170.5)" height="23" width="256.03334045410156" y="-1.5" x="-272.03334045410156" ry="4" rx="4" class="branchLabelBkg label2"></rect><g class="branchLabel"><g transform="translate(-282.03334045410156, 169.5)" class="label branch-label2"><text><tspan class="row" x="0" dy="1em" xml:space="preserve">bugfix/enemy not taking damage</tspan></text></g></g></g><g class="commit-arrows"><path class="arrow arrow0" d="M 10 0 L 10 0  10 0 L 60 0"></path><path class="arrow arrow1" d="M 60 0 L 60 70 A 20 20, 0, 0, 0, 80 90 L 110 90"></path><path class="arrow arrow1" d="M 110 90 L 110 90  110 90 L 160 90"></path><path class="arrow arrow0" d="M 60 0 L 60 0  60 0 L 210 0"></path><path class="arrow arrow2" d="M 210 0 L 210 160 A 20 20, 0, 0, 0, 230 180 L 260 180"></path><path class="arrow arrow2" d="M 260 180 L 260 180  260 180 L 310 180"></path><path class="arrow arrow2" d="M 310 180 L 310 180  310 180 L 360 180"></path><path class="arrow arrow2" d="M 210 0 L 210 62 A 10 10, 0, 0, 0, 220 72 L 350 72 A 10 10, 0, 0, 1, 360 82 L 360 180"></path><path class="arrow arrow0" d="M 210 0 L 210 0  210 0 L 410 0"></path><path class="arrow arrow2" d="M 360 180 L 390 180 A 20 20, 0, 0, 0, 410 160 L 410 0"></path><path class="arrow arrow0" d="M 410 0 L 410 0  410 0 L 460 0"></path><path class="arrow arrow0" d="M 460 0 L 460 0  460 0 L 510 0"></path><path class="arrow arrow1" d="M 160 90 L 160 90  160 90 L 560 90"></path><path class="arrow arrow1" d="M 510 0 L 510 70 A 20 20, 0, 0, 0, 530 90 L 560 90"></path><path class="arrow arrow0" d="M 510 0 L 510 0  510 0 L 610 0"></path><path class="arrow arrow1" d="M 560 90 L 590 90 A 20 20, 0, 0, 0, 610 70 L 610 0"></path><path class="arrow arrow0" d="M 610 0 L 610 0  610 0 L 660 0"></path><path class="arrow arrow0" d="M 660 0 L 660 0  660 0 L 710 0"></path></g><g class="commit-bullets"><circle class="commit 0-41d010c commit0" r="10" cy="0" cx="10"></circle><circle class="commit 1-a2ebeea commit0" r="10" cy="0" cx="60"></circle><circle class="commit 2-fabcde9 commit1" r="10" cy="90" cx="110"></circle><circle class="commit 3-4d9b44f commit1" r="10" cy="90" cx="160"></circle><circle class="commit 4-4563779 commit0" r="10" cy="0" cx="210"></circle><circle class="commit 5-65afb82 commit2" r="10" cy="180" cx="260"></circle><circle class="commit 6-0f05843 commit2" r="10" cy="180" cx="310"></circle><circle class="commit 7-9b74800 commit2" r="9" cy="180" cx="360"></circle><circle class="commit commit-merge 7-9b74800 commit2" r="6" cy="180" cx="360"></circle><circle class="commit 8-46eb3b5 commit0" r="9" cy="0" cx="410"></circle><circle class="commit commit-merge 8-46eb3b5 commit0" r="6" cy="0" cx="410"></circle><circle class="commit 9-62fe27b commit0" r="10" cy="0" cx="460"></circle><circle class="commit 10-b82133a commit0" r="10" cy="0" cx="510"></circle><circle class="commit 11-380a2bd commit1" r="9" cy="90" cx="560"></circle><circle class="commit commit-merge 11-380a2bd commit1" r="6" cy="90" cx="560"></circle><circle class="commit 12-b6dded4 commit0" r="9" cy="0" cx="610"></circle><circle class="commit commit-merge 12-b6dded4 commit0" r="6" cy="0" cx="610"></circle><circle class="commit 13-fde883a commit0" r="10" cy="0" cx="660"></circle><circle class="commit 14-f4953dd commit0" r="10" cy="0" cx="710"></circle></g><g class="commit-labels"><g transform="translate(-29.54, 26.32) rotate(-45, 0, 0)"><rect height="15" width="52" y="13.5" x="-16" class="commit-label-bkg"></rect><text class="commit-label" y="25" x="-14">0-41d010c</text></g><g transform="translate(-29.54, 26.32) rotate(-45, 50, 0)"><rect height="15" width="52" y="13.5" x="34" class="commit-label-bkg"></rect><text class="commit-label" y="25" x="36">1-a2ebeea</text></g><g transform="translate(-29.54, 26.32) rotate(-45, 100, 90)"><rect height="15" width="52" y="103.5" x="84" class="commit-label-bkg"></rect><text class="commit-label" y="115" x="86">2-fabcde9</text></g><g transform="translate(-29.54, 26.32) rotate(-45, 150, 90)"><rect height="15" width="52" y="103.5" x="134" class="commit-label-bkg"></rect><text class="commit-label" y="115" x="136">3-4d9b44f</text></g><g transform="translate(-29.159999999999997, 25.979999999999997) rotate(-45, 200, 0)"><rect height="15" width="51" y="13.5" x="184.5" class="commit-label-bkg"></rect><text class="commit-label" y="25" x="186.5">4-4563779</text></g><g transform="translate(-29.159999999999997, 25.979999999999997) rotate(-45, 250, 180)"><rect height="15" width="51" y="193.5" x="234.5" class="commit-label-bkg"></rect><text class="commit-label" y="205" x="236.5">5-65afb82</text></g><g transform="translate(-28.78, 25.64) rotate(-45, 300, 180)"><rect height="15" width="50" y="193.5" x="285" class="commit-label-bkg"></rect><text class="commit-label" y="205" x="287">6-0f05843</text></g><g transform="translate(-29.159999999999997, 25.979999999999997) rotate(-45, 450, 0)"><rect height="15" width="51" y="13.5" x="434.5" class="commit-label-bkg"></rect><text class="commit-label" y="25" x="436.5">9-62fe27b</text></g><g transform="translate(-31.44, 28.02) rotate(-45, 500, 0)"><rect height="15" width="57" y="13.5" x="481.5" class="commit-label-bkg"></rect><text class="commit-label" y="25" x="483.5">10-b82133a</text></g><g transform="translate(-31.06, 27.68) rotate(-45, 650, 0)"><rect height="15" width="56" y="13.5" x="632" class="commit-label-bkg"></rect><text class="commit-label" y="25" x="634">13-fde883a</text></g><g transform="translate(-31.44, 28.02) rotate(-45, 700, 0)"><rect height="15" width="57" y="13.5" x="681.5" class="commit-label-bkg"></rect><text class="commit-label" y="25" x="683.5">14-f4953dd</text></g></g></svg>